<svg xmlns="http://www.w3.org/2000/svg" viewBox="0 0 100 100" width="100" height="100">
  <defs>
    <radialGradient id="heartEmojiGradient" cx="35%" cy="30%">
      <stop offset="0%" style="stop-color:#ffb3c6;stop-opacity:1" />
      <stop offset="40%" style="stop-color:#ff8fab;stop-opacity:1" />
      <stop offset="100%" style="stop-color:#ff1744;stop-opacity:1" />
    </radialGradient>
  </defs>
  <!-- 爱心主体 - 更饱满圆润 -->
  <path d="M50,92 C50,92 8,65 8,38 C8,20 18,10 30,10 C38,10 45,15 50,24 C55,15 62,10 70,10 C82,10 92,20 92,38 C92,65 50,92 50,92 Z" 
        fill="url(#heartEmojiGradient)"/>
  <!-- 主高光 -->
  <ellipse cx="28" cy="24" rx="16" ry="22" fill="white" opacity="0.4" transform="rotate(-20 28 24)"/>
  <ellipse cx="35" cy="22" rx="10" ry="14" fill="white" opacity="0.6" transform="rotate(-20 35 22)"/>
  <!-- 小高光点 -->
  <circle cx="40" cy="20" r="4" fill="white" opacity="0.9"/>
  <circle cx="46" cy="18" r="2" fill="white" opacity="0.8"/>
</svg>