<svg xmlns="http://www.w3.org/2000/svg" viewBox="0 0 100 100" width="100" height="100">
  <defs>
    <radialGradient id="catGradient" cx="50%" cy="40%">
      <stop offset="0%" style="stop-color:#ffffff;stop-opacity:1" />
      <stop offset="70%" style="stop-color:#f8f8f8;stop-opacity:1" />
      <stop offset="100%" style="stop-color:#f0f0f0;stop-opacity:1" />
    </radialGradient>
    <radialGradient id="blueEyeGradient" cx="40%" cy="40%">
      <stop offset="0%" style="stop-color:#5ba3d0;stop-opacity:1" />
      <stop offset="100%" style="stop-color:#2171a3;stop-opacity:1" />
    </radialGradient>
    <linearGradient id="pointGradient" x1="0%" y1="0%" x2="0%" y2="100%">
      <stop offset="0%" style="stop-color:#5d4a3a;stop-opacity:1" />
      <stop offset="100%" style="stop-color:#3d2f24;stop-opacity:1" />
    </linearGradient>
  </defs>
  <!-- 左耳 - 深棕色 -->
  <path d="M25,30 L18,8 L38,24 Z" fill="url(#pointGradient)" stroke="#3d2f24" stroke-width="2"/>
  <!-- 右耳 - 深棕色 -->
  <path d="M75,30 L82,8 L62,24 Z" fill="url(#pointGradient)" stroke="#3d2f24" stroke-width="2"/>
  <!-- 头部 - 白色 -->
  <circle cx="50" cy="52" r="32" fill="url(#catGradient)" stroke="#e0e0e0" stroke-width="2"/>
  <!-- 脸部深棕色面具 - 覆盖眼睛周围 -->
  <ellipse cx="38" cy="46" rx="12" ry="16" fill="url(#pointGradient)" opacity="0.7"/>
  <ellipse cx="62" cy="46" rx="12" ry="16" fill="url(#pointGradient)" opacity="0.7"/>
  <!-- 鼻子和嘴巴区域保持白色 -->
  <ellipse cx="50" cy="60" rx="16" ry="12" fill="white"/>
  <!-- 左眼 - 深蓝色 -->
  <ellipse cx="38" cy="46" rx="6" ry="9" fill="url(#blueEyeGradient)"/>
  <ellipse cx="39" cy="44" rx="2.5" ry="3.5" fill="#87ceeb"/>
  <ellipse cx="39.5" cy="42" rx="1.5" ry="2" fill="white"/>
  <!-- 右眼 - 深蓝色 -->
  <ellipse cx="62" cy="46" rx="6" ry="9" fill="url(#blueEyeGradient)"/>
  <ellipse cx="63" cy="44" rx="2.5" ry="3.5" fill="#87ceeb"/>
  <ellipse cx="63.5" cy="42" rx="1.5" ry="2" fill="white"/>
  <!-- 鼻子 - 粉色 -->
  <path d="M50,54 L47,59 L53,59 Z" fill="#ffb6c1"/>
  <!-- 嘴巴 -->
  <path d="M50,59 Q45,62 42,60" stroke="#999" stroke-width="2" fill="none" stroke-linecap="round"/>
  <path d="M50,59 Q55,62 58,60" stroke="#999" stroke-width="2" fill="none" stroke-linecap="round"/>
  <!-- 胡须 - 白色 -->
  <line x1="22" y1="50" x2="10" y2="48" stroke="white" stroke-width="2" stroke-linecap="round"/>
  <line x1="22" y1="56" x2="10" y2="56" stroke="white" stroke-width="2" stroke-linecap="round"/>
  <line x1="22" y1="62" x2="10" y2="64" stroke="white" stroke-width="2" stroke-linecap="round"/>
  <line x1="78" y1="50" x2="90" y2="48" stroke="white" stroke-width="2" stroke-linecap="round"/>
  <line x1="78" y1="56" x2="90" y2="56" stroke="white" stroke-width="2" stroke-linecap="round"/>
  <line x1="78" y1="62" x2="90" y2="64" stroke="white" stroke-width="2" stroke-linecap="round"/>
</svg>